# xmcd
#
# Track frame offsets:
#	150
#	12665
#	24965
#	36897
#	47155
#	60877
#	73820
#	85447
#	98727
#	110372
#	121495
#	135170
#	149372
#	161900
#	174620
#	185242
#	196237
#	209242
#	223027
#	237025
#	247092
#	260890
#	272037
#	284415
#
# Disc length: 3982 seconds
#
# Revision: 7
# Processed by: cddbd v1.5.2PL0 Copyright (c) Steve Scherf et al.
# Submitted via: dBpowerAMP V4.0
#
DISCID=780f8c18
DTITLE=Various Artist - Country USA - 1951
DYEAR=1951
DGENRE=Country
TTITLE0=Hank Snow - The Golden Rocket
TTITLE1=Hank Williams - Howlin' At The Moon
TTITLE2=Tennessee Ernie Ford - The Shot Gun Boogie
TTITLE3=Eddy Arnold - There's Been A Change In Me
TTITLE4=Lefty Frizzell - Mom And Dad's Waltz
TTITLE5=Carl Smith - Let Old Mother Nature Have Her Way
TTITLE6=Ramblin' Jimmie Dolan - Hot Rod Race
TTITLE7=Hank Williams - Hey, Good Lookin'
TTITLE8=Eddy Arnold - Kentucky Waltz
TTITLE9=Del Wood - Down Yonder
TTITLE10=Pee Wee King - Slow Poke
TTITLE11=Lefty Frizzell - Always Late (With Your Kisses)
TTITLE12=Red Foley - Alabama Jubilee
TTITLE13=Hank Snow - The Rhumba Boogie
TTITLE14=Johnnie and Jack - Poison Love
TTITLE15=Hank Williams - I Can't Help It (If I'm Still In Love With You)
TTITLE16=Carl Smith - Let's Live A Little
TTITLE17=Lefty Frizzell - I Want To Be With You Always
TTITLE18=Moon Mullican - Cherokee Boogie (Eh-Oh-Aleena)
TTITLE19=Eddy Arnold - I Want To Play House With You
TTITLE20=Patti Page - The Tennessee Waltz
TTITLE21=Hank Snow - Music Makin' Mama From Memphis
TTITLE22=Hank Williams - Cold, Cold Heart
TTITLE23=Red Foley - Peace In The Valley
EXTD=
EXTT0=
EXTT1=
EXTT2=
EXTT3=
EXTT4=
EXTT5=
EXTT6=
EXTT7=
EXTT8=
EXTT9=
EXTT10=
EXTT11=
EXTT12=
EXTT13=
EXTT14=
EXTT15=
EXTT16=
EXTT17=
EXTT18=
EXTT19=
EXTT20=
EXTT21=
EXTT22=
EXTT23=
PLAYORDER=
